<svg width="278" height="256" viewBox="0 0 278 256" fill="none" xmlns="http://www.w3.org/2000/svg">
    <path d="M160.711 197.842C169.21 196.012 178.637 192.155 185.032 185.362C189.996 180.09 192.148 173.807 192.941 167.857C193.835 161.162 193.28 154.733 192.963 148.312C192.771 144.381 192.804 140.45 193.633 136.316C194.522 131.87 196.124 127.363 198.363 122.99C200.682 118.47 203.672 114.124 207.238 110.083C211.303 105.475 215.935 101.276 220.381 96.9459C227.686 89.8213 234.956 81.5741 236.783 72.6371C237.592 68.6844 237.092 64.9173 235.138 61.9555C233.136 58.9134 229.809 56.8525 226.008 55.6926C217.379 53.0504 207.075 55.2514 197.251 58.8906C186.733 62.7872 176.547 68.224 165.923 71.5669C160.615 73.235 155.203 74.353 150.058 74.3235C144.954 74.292 140.27 73.197 135.816 71.8067C127.413 69.1761 119.521 65.4282 109.855 65.1702C105.395 65.0508 100.641 65.7459 96.026 67.6172C91.3911 69.502 87.099 72.4702 83.4661 75.9404C66.398 92.2518 67.8249 112.56 68.275 129.733C68.5256 139.334 68.1832 149.084 64.4067 159.191C60.7592 168.949 54.9488 178.487 52.0485 188.307C49.4697 197.028 49.2462 206.068 54.822 211.937C60.1233 217.514 69.169 219.435 78.2791 218.92C88.7718 218.326 99.7191 214.651 110.254 210.948C115.907 208.96 121.557 206.844 127.252 205.211C132.875 203.6 138.504 202.376 144.122 201.251C146.807 200.714 149.487 200.203 152.173 199.677C155.024 199.118 157.87 198.373 160.72 197.76C160.943 197.714 160.963 197.408 160.74 197.453C157.898 198.066 155.059 198.455 152.218 199.007C149.532 199.533 146.852 200.045 144.167 200.581C138.675 201.678 133.172 202.875 127.68 204.433C116.784 207.52 106.061 212.149 95.154 215.167C84.9855 217.984 74.6273 219.487 65.7015 217.098C61.6045 216.002 57.9177 214.115 55.3036 211.279C52.5761 208.322 51.1942 204.434 51.017 200.168C50.6444 191.231 54.8982 181.731 59.1707 172.677C61.4382 167.873 63.7576 163.06 65.496 158.194C67.1797 153.49 68.1817 148.798 68.6663 144.166C69.6552 134.721 68.689 125.713 68.7534 116.474C68.8186 107.457 69.8314 97.773 74.7528 88.4925C79.3 79.92 87.2736 71.4945 97.1647 67.8362C106.901 64.2367 116.247 66.0688 124.169 68.6215C132.579 71.3345 140.629 75.1238 150.506 74.9929C160.259 74.8613 170.478 70.9219 180.144 66.7379C190.356 62.3162 200.744 57.2972 211.298 55.6372C220.608 54.1722 230.438 55.9787 234.617 62.6083C238.853 69.322 234.953 78.7995 229.171 86.4354C222.232 95.6012 212.334 102.83 205.013 111.768C198.88 119.256 194.716 127.731 192.999 136.029C191.472 143.395 192.465 150.226 192.659 157.235C192.826 163.283 192.704 169.688 190.226 176.067C187.669 182.657 182.342 188.159 175.477 191.921C170.746 194.517 165.737 196.249 160.737 197.364C160.403 197.449 160.375 197.912 160.711 197.842Z" fill="#D98D4F" fill-opacity="0.6"/>
    </svg>
    