<svg width="424" height="235" viewBox="0 0 424 235" fill="none" xmlns="http://www.w3.org/2000/svg">
    <g filter="url(#filter0_d_26_85)">
    <path d="M335.832 185.531C265.466 185.531 46.8705 185.531 46.8705 185.531V144.234H357.373C357.373 144.234 357.373 153.643 357.373 163.478M337.246 185.531C268.448 185.531 46.8705 185.531 46.8705 185.531V167.764C46.8705 167.764 323.834 167.764 354.605 167.764M115.759 61.7752C115.759 90.4548 115.759 151.099 115.759 151.099H92.1503C88.4982 151.099 84.9742 151.62 81.5772 152.577C65.3569 157.271 53.4252 172.616 53.4252 190.786C53.4252 194.046 53.8072 197.219 54.5293 200.262H14.912L9.43475 149.404L7.82155 134.19C7.31197 129.582 7.39648 124.974 8.03359 120.41C8.62818 115.933 9.77484 111.542 11.4731 107.325L30.6233 58.901C31.982 55.4669 34.2749 52.598 37.1198 50.5549C40.2198 48.2947 43.9143 47.0773 47.8204 47.0773C47.8204 47.0773 81.4639 47.0773 101.4 47.0773M115.759 129.006C115.759 138.562 115.759 151.099 115.759 151.099H92.1503C88.4982 151.099 84.9742 151.62 81.5772 152.577C65.3569 157.271 53.4252 172.616 53.4252 190.786C53.4252 194.046 53.8072 197.219 54.5293 200.262H14.912L9.43475 149.404L28.415 118.367C28.415 118.367 82.2138 118.367 105.367 118.367M115.75 55.8908C115.75 81.0187 115.75 151.097 115.75 151.097H92.1576C88.4988 151.097 84.959 151.624 81.5966 152.596C86.3628 135.347 98.4468 81.9804 76.6137 47.0574C76.6137 47.0574 95.5956 47.0574 107.121 47.0574M48.6028 172.973C55.581 155.16 72.7245 142.755 92.1571 142.755C93.1584 142.755 94.1519 142.787 95.1379 142.85C97.2959 143.006 99.4245 142.207 100.983 140.709C102.536 139.218 103.39 137.191 103.39 135.009V64.2621C103.39 61.7532 101.395 59.7106 98.9432 59.7106H47.8398C46.5546 59.7106 45.3433 60.1103 44.2449 60.8931C43.3024 61.5635 42.5394 62.5521 42.0954 63.6749L22.889 112.089C21.6137 115.355 20.731 118.763 20.2671 122.216C19.7717 125.74 19.716 129.303 20.1023 132.799L25.5659 183.896C25.7932 186.007 27.5281 187.599 29.6021 187.599C29.6021 187.599 33.1691 187.599 36.4323 187.599M100.424 72.7011C100.424 91.4664 100.424 135.009 100.424 135.009C100.424 136.346 99.9015 137.583 98.9522 138.497C97.9734 139.438 96.684 139.9 95.3237 139.821C94.2757 139.754 93.2203 139.718 92.1571 139.718C67.4645 139.718 46.2454 158.56 42.8001 183.544C42.7188 184.133 42.2638 184.562 41.7186 184.562H29.6021C29.0427 184.562 28.5756 184.133 28.5147 183.564L23.05 132.463C22.6921 129.218 22.7436 125.917 23.2048 122.639C23.6368 119.422 24.4575 116.253 25.6399 113.224L44.8442 64.8155C45.0746 64.2326 45.4635 63.7243 45.9384 63.3859C46.5325 62.963 47.1728 62.7476 47.8398 62.7476C47.8398 62.7476 73.4093 62.7476 88.3749 62.7476M95.9739 76.5692C95.9739 87.3179 95.9739 108.384 95.9739 108.384C95.9739 110.103 94.6121 111.498 92.9322 111.498H35.6467C33.4877 111.498 32.0157 109.26 32.8275 107.212L47.8797 69.2456C48.3452 68.0711 49.4603 67.3029 50.6988 67.3029C50.6988 67.3029 84.7523 67.3029 91.7027 67.3029M9.42585 159.418C11.9905 159.418 16.3001 159.418 16.3001 159.418C17.1645 159.418 17.8656 160.136 17.8656 161.021V178.06C17.8656 178.945 17.1645 179.663 16.3001 179.663H7.56546C6.70059 179.663 6.00001 178.945 6.00001 178.06V161.021C6.00001 160.809 6.03988 160.607 6.11283 160.422M8.70006 161.562C10.7216 161.562 14.1186 161.562 14.1186 161.562C14.8003 161.562 15.3523 162.128 15.3523 162.826V176.256C15.3523 176.953 14.8003 177.519 14.1186 177.519H7.23378C6.55261 177.519 6.00001 176.953 6.00001 176.256V162.826C6.00001 162.659 6.03147 162.5 6.08919 162.353M9.39382 186.199C12.2267 186.199 17.8283 186.199 17.8283 186.199C18.6769 186.199 19.3775 187.117 19.3928 188.216L19.5617 200.913C19.5712 201.614 19.0501 202.168 18.3983 202.168H10.6943C10.0419 202.168 9.40067 201.614 9.25794 200.913L6.66856 188.216C6.59247 187.843 6.59984 187.492 6.67593 187.189M35.8472 55.1311C29.8299 76.4075 18.4465 115.617 15.5649 117.571C13.409 119.049 10.3442 119.919 8.03042 120.425C8.62397 115.951 9.77063 111.558 11.4515 107.327L30.6344 58.9214C31.3911 57.012 32.4344 55.2713 33.6992 53.7499M135.723 188.297C130.829 180.281 115.75 155.581 115.75 155.581L120.826 152.334L142.312 187.529C142.312 187.529 140.965 188.39 139.659 189.226M381.312 188.297C376.418 180.281 361.339 155.581 361.339 155.581L366.415 152.334L387.901 187.529C387.901 187.529 386.554 188.39 385.248 189.226M299.416 188.297C304.31 180.281 319.389 155.581 319.389 155.581L314.313 152.334L292.828 187.529C292.828 187.529 294.174 188.39 295.48 189.226M226.338 180.34C226.338 185.584 226.338 192.579 226.338 192.579C226.338 194.301 224.973 195.697 223.292 195.697H160.345C158.644 195.697 157.28 194.3 157.28 192.559V174.683C157.28 172.962 158.644 171.564 160.345 171.564C160.345 171.564 215.491 171.564 222.551 171.564M226.338 180.011C226.338 183.415 226.338 187.194 226.338 187.194C226.338 188.935 224.973 190.332 223.292 190.332H160.345C158.644 190.332 157.28 188.935 157.28 187.194V174.683C157.28 172.962 158.644 171.564 160.345 171.564C160.345 171.564 217.403 171.564 222.872 171.564M218.29 182C217.723 184.992 215.151 187.25 212.063 187.25C208.559 187.25 205.717 184.342 205.717 180.755C205.717 177.167 208.559 174.26 212.063 174.26C215.151 174.26 217.723 176.518 218.29 179.509M406.76 182.542C406.629 182.542 406.546 182.542 406.546 182.542C403.771 182.542 401.52 180.238 401.52 177.396V157.91H408.607C408.607 157.91 408.607 174.887 408.607 180.652M414.275 187.265C412.059 187.265 407.865 187.265 407.865 187.265V172.925H415.611C415.611 172.925 415.611 182.315 415.611 185.898M417.322 184.651C416.616 184.651 415.611 184.651 415.611 184.651V175.793H418C418 175.793 418 181.87 418 183.957M416.176 30.4706C416.176 75.5206 416.176 158.184 416.176 158.184H115.759V2C115.759 2 313.924 2 388.364 2M416.176 39.2637C416.176 79.1287 416.176 158.184 416.176 158.184H173.38C191.129 116.08 234.355 16.8381 234.355 16.8381C234.355 16.8381 345.926 16.8381 394.271 16.8381M385.431 5.42062C313.016 5.42062 119.574 5.42062 119.574 5.42062V154.779H412.364C412.364 154.779 412.364 76.1513 412.364 32.9941M148.196 7.71411C219.394 7.71411 410.123 7.71411 410.123 7.71411V152.486H121.815C121.815 152.486 121.815 76.616 121.815 34.724" stroke="#6BA6F1" stroke-opacity="0.483401" stroke-width="3" stroke-linecap="round"/>
    <path d="M335.832 185.531C265.466 185.531 46.8705 185.531 46.8705 185.531V144.234H357.373C357.373 144.234 357.373 153.643 357.373 163.478" fill="#52513E" fill-opacity="0.0444564"/>
    <path d="M337.246 185.531C268.448 185.531 46.8704 185.531 46.8704 185.531V167.764C46.8704 167.764 323.834 167.764 354.605 167.764" fill="#6D6C53" fill-opacity="0.0444564"/>
    <path d="M115.759 61.775C115.759 90.4546 115.759 151.099 115.759 151.099H92.1504C88.4983 151.099 84.9743 151.62 81.5773 152.577C65.357 157.271 53.4253 172.616 53.4253 190.786C53.4253 194.046 53.8073 197.219 54.5294 200.262H14.9122L9.43486 149.404L7.82166 134.189C7.31208 129.581 7.39656 124.974 8.03367 120.41C8.62826 115.933 9.77493 111.542 11.4732 107.325L30.6234 58.9008C31.9821 55.4667 34.275 52.5979 37.1199 50.5547C40.2198 48.2945 43.9144 47.0771 47.8204 47.0771C47.8204 47.0771 81.464 47.0771 101.4 47.0771" fill="#D98D4F" fill-opacity="0.0445"/>
    <path d="M115.759 129.006C115.759 138.562 115.759 151.099 115.759 151.099H92.1504C88.4983 151.099 84.9743 151.62 81.5773 152.577C65.357 157.271 53.4253 172.616 53.4253 190.786C53.4253 194.046 53.8073 197.219 54.5294 200.262H14.9122L9.43486 149.404L28.4151 118.367C28.4151 118.367 82.2139 118.367 105.367 118.367" fill="#E7E6EE" fill-opacity="0.0444564"/>
    <g style="mix-blend-mode:multiply">
    <path d="M115.75 55.8908C115.75 81.0187 115.75 151.097 115.75 151.097H92.1576C88.4987 151.097 84.959 151.624 81.5966 152.596C86.3628 135.347 98.4467 81.9804 76.6137 47.0575C76.6137 47.0575 95.5955 47.0575 107.121 47.0575" fill="#D98D4F" fill-opacity="0.0445"/>
    </g>
    <path d="M48.6029 172.973C55.5811 155.16 72.7245 142.755 92.1572 142.755C93.1585 142.755 94.1519 142.787 95.138 142.85C97.2959 143.006 99.4245 142.207 100.983 140.709C102.536 139.218 103.39 137.191 103.39 135.009V64.2621C103.39 61.7532 101.395 59.7106 98.9433 59.7106H47.8398C46.5546 59.7106 45.3434 60.1103 44.245 60.893C43.3024 61.5635 42.5394 62.552 42.0954 63.6749L22.889 112.089C21.6137 115.355 20.731 118.763 20.2671 122.216C19.7717 125.74 19.7161 129.303 20.1023 132.799L25.566 183.896C25.7932 186.007 27.5282 187.599 29.6021 187.599C29.6021 187.599 33.1692 187.599 36.4324 187.599M100.424 72.7011C100.424 91.4664 100.424 135.009 100.424 135.009C100.424 136.346 99.9015 137.583 98.9522 138.497C97.9734 139.438 96.684 139.9 95.3238 139.821C94.2757 139.754 93.2204 139.718 92.1572 139.718C67.4645 139.718 46.2455 158.56 42.8002 183.544C42.7189 184.133 42.2639 184.562 41.7186 184.562H29.6021C29.0427 184.562 28.5757 184.133 28.5148 183.564L23.0501 132.463C22.6922 129.218 22.7436 125.917 23.2049 122.639C23.6368 119.422 24.4576 116.253 25.6399 113.224L44.8443 64.8154C45.0747 64.2325 45.4635 63.7243 45.9385 63.3858C46.5325 62.963 47.1728 62.7476 47.8398 62.7476C47.8398 62.7476 73.4094 62.7476 88.375 62.7476" fill="#D98D4F" fill-opacity="0.0445"/>
    <path d="M95.9739 76.5691C95.9739 87.3177 95.9739 108.384 95.9739 108.384C95.9739 110.103 94.612 111.497 92.9322 111.497H35.6466C33.4876 111.497 32.0156 109.26 32.8274 107.212L47.8796 69.2454C48.3451 68.071 49.4603 67.3027 50.6988 67.3027C50.6988 67.3027 84.7522 67.3027 91.7026 67.3027" fill="#686B75" fill-opacity="0.0444564"/>
    <path d="M9.42597 159.418C11.9907 159.418 16.3003 159.418 16.3003 159.418C17.1646 159.418 17.8657 160.136 17.8657 161.021V178.06C17.8657 178.945 17.1646 179.663 16.3003 179.663H7.56559C6.70072 179.663 6.00012 178.945 6.00012 178.06V161.021C6.00012 160.809 6.04 160.607 6.11295 160.422" fill="#ABD1D2" fill-opacity="0.0444564"/>
    <g style="mix-blend-mode:screen">
    <path d="M8.7 161.562C10.7215 161.562 14.1185 161.562 14.1185 161.562C14.8002 161.562 15.3523 162.128 15.3523 162.826V176.256C15.3523 176.953 14.8002 177.519 14.1185 177.519H7.23372C6.55255 177.519 5.99994 176.953 5.99994 176.256V162.826C5.99994 162.659 6.03142 162.5 6.08914 162.353" fill="#ABD1D2" fill-opacity="0.0444564"/>
    </g>
    <path d="M9.39375 186.199C12.2266 186.199 17.8283 186.199 17.8283 186.199C18.6769 186.199 19.3774 187.117 19.3927 188.216L19.5616 200.913C19.5711 201.614 19.05 202.168 18.3982 202.168H10.6942C10.0419 202.168 9.40057 201.614 9.25784 200.913L6.66849 188.216C6.5924 187.843 6.59975 187.491 6.67584 187.189" fill="#323042" fill-opacity="0.0444564"/>
    <path d="M35.8472 55.1312C29.8299 76.4077 18.4465 115.617 15.5649 117.571C13.409 119.049 10.3442 119.919 8.03043 120.426C8.62397 115.951 9.77065 111.558 11.4516 107.327L30.6344 58.9215C31.3911 57.0121 32.4344 55.2715 33.6992 53.75" fill="#686B75" fill-opacity="0.0444564"/>
    <path d="M135.723 188.297C130.829 180.281 115.75 155.582 115.75 155.582L120.826 152.334L142.312 187.529C142.312 187.529 140.965 188.39 139.659 189.226" fill="#323042" fill-opacity="0.0444564"/>
    <path d="M381.312 188.297C376.418 180.281 361.339 155.582 361.339 155.582L366.415 152.334L387.901 187.529C387.901 187.529 386.554 188.39 385.248 189.226" fill="#323042" fill-opacity="0.0444564"/>
    <path d="M299.416 188.297C304.31 180.281 319.389 155.582 319.389 155.582L314.313 152.334L292.827 187.529C292.827 187.529 294.174 188.39 295.48 189.226" fill="#323042" fill-opacity="0.0444564"/>
    <path d="M226.338 180.34C226.338 185.584 226.338 192.579 226.338 192.579C226.338 194.301 224.973 195.697 223.292 195.697H160.345C158.644 195.697 157.28 194.3 157.28 192.559V174.683C157.28 172.962 158.644 171.564 160.345 171.564C160.345 171.564 215.491 171.564 222.551 171.564" fill="#4D8BCE" fill-opacity="0.0444564"/>
    <path d="M226.338 180.011C226.338 183.415 226.338 187.194 226.338 187.194C226.338 188.935 224.973 190.332 223.292 190.332H160.345C158.644 190.332 157.28 188.935 157.28 187.194V174.683C157.28 172.962 158.644 171.564 160.345 171.564C160.345 171.564 217.403 171.564 222.872 171.564" fill="#D98D4F" fill-opacity="0.0445"/>
    <path d="M218.291 182C217.723 184.992 215.151 187.25 212.063 187.25C208.559 187.25 205.717 184.342 205.717 180.755C205.717 177.167 208.559 174.26 212.063 174.26C215.151 174.26 217.723 176.518 218.291 179.509" fill="#52513E" fill-opacity="0.0444564"/>
    <path d="M406.76 182.542C406.629 182.542 406.546 182.542 406.546 182.542C403.771 182.542 401.52 180.238 401.52 177.396V157.91H408.607C408.607 157.91 408.607 174.887 408.607 180.652" fill="#2B3A45" fill-opacity="0.0444564"/>
    <path d="M414.275 187.265C412.059 187.265 407.865 187.265 407.865 187.265V172.925H415.611C415.611 172.925 415.611 182.315 415.611 185.898" fill="#869697" fill-opacity="0.0444564"/>
    <path d="M417.322 184.651C416.616 184.651 415.611 184.651 415.611 184.651V175.793H418C418 175.793 418 181.87 418 183.957" fill="#D44A50" fill-opacity="0.0444564"/>
    <path d="M416.176 30.4706C416.176 75.5206 416.176 158.184 416.176 158.184H115.759V2C115.759 2 313.924 2 388.364 2" fill="#E7E6EE" fill-opacity="0.0444564"/>
    <path d="M416.176 39.2637C416.176 79.1287 416.176 158.184 416.176 158.184H173.38C191.129 116.08 234.355 16.8381 234.355 16.8381C234.355 16.8381 345.926 16.8381 394.271 16.8381" fill="#D98D4F" fill-opacity="0.0445"/>
    <path d="M385.431 5.42078C313.016 5.42078 119.575 5.42078 119.575 5.42078V154.78H412.364C412.364 154.78 412.364 76.1514 412.364 32.9942M148.196 7.71426C219.394 7.71426 410.123 7.71426 410.123 7.71426V152.486H121.815C121.815 152.486 121.815 76.6161 121.815 34.7241" fill="#DAD0B1" fill-opacity="0.0444564"/>
    <path d="M99.5637 222.04C85.2432 226.378 69.468 219.882 62.3201 205.811C54.2088 189.844 60.2778 170.168 75.8754 161.865C91.4725 153.561 110.693 159.773 118.804 175.74C125.952 189.811 122.087 206.764 110.394 216.274M113.183 171.937C104.618 160.898 89.3297 157.247 76.6607 163.992C62.283 171.646 56.676 189.812 64.1529 204.531C71.6299 219.25 89.3797 224.987 103.757 217.333C116.426 210.588 122.286 195.679 118.377 182.161M96.4933 211.376C87.0574 214.235 76.6628 209.955 71.9529 200.683C66.6084 190.162 70.6069 177.197 80.8846 171.725C91.1618 166.254 103.827 170.348 109.171 180.869C113.881 190.141 111.335 201.31 103.63 207.577M95.586 208.225C87.5932 210.647 78.7887 207.021 74.7991 199.168C70.2718 190.255 73.6589 179.274 82.3647 174.639C91.0705 170.004 101.798 173.472 106.325 182.384C110.314 190.238 108.158 199.699 101.631 205.007M94.5298 204.557C88.2172 206.469 81.2636 203.606 78.1128 197.404C74.5373 190.365 77.2129 181.691 84.088 178.031C90.963 174.371 99.4352 177.11 103.011 184.149C106.162 190.351 104.458 197.823 99.3041 202.015M92.692 198.173C89.3033 199.201 85.5703 197.664 83.8788 194.334C81.9594 190.556 83.3957 185.899 87.0865 183.934C90.7773 181.969 95.3259 183.44 97.2452 187.218C98.9367 190.548 98.0221 194.559 95.2547 196.809M91.7879 195.034C89.8378 195.624 87.6895 194.739 86.7162 192.823C85.6116 190.649 86.438 187.97 88.562 186.839C90.6861 185.708 93.3037 186.554 94.4083 188.728C95.3817 190.644 94.8551 192.953 93.2629 194.248M91.3882 193.646C90.0738 194.044 88.6257 193.448 87.9695 192.156C87.225 190.69 87.7824 188.885 89.2141 188.122C90.6458 187.36 92.4099 187.93 93.1545 189.396C93.8106 190.687 93.456 192.244 92.3827 193.116M91.1721 192.894C90.2014 193.189 89.1317 192.748 88.6475 191.795C88.0976 190.713 88.5097 189.379 89.5666 188.816C90.6235 188.254 91.9267 188.674 92.4765 189.757C92.9608 190.71 92.6989 191.859 91.9059 192.504M99.9416 187.435C99.5468 186.366 99.0101 185.357 98.3454 184.437C98.0388 184.011 98.072 183.401 98.4601 183.046C98.5701 182.948 98.6801 182.85 98.7905 182.752C99.1768 182.398 99.834 182.504 100.209 183.025C101.114 184.276 101.819 185.666 102.3 187.141C102.502 187.755 102.209 188.367 101.705 188.488C101.563 188.524 101.421 188.56 101.28 188.596C100.932 188.679 100.585 188.554 100.347 188.305M94.8869 181.624C93.8691 181.154 92.7925 180.829 91.6874 180.66C91.1766 180.58 90.7777 180.125 90.8068 179.593C90.8174 179.443 90.8278 179.295 90.8381 179.145C90.867 178.615 91.4046 178.215 92.0302 178.312C93.5337 178.542 94.9921 179.013 96.3521 179.709C96.9185 179.997 97.1339 180.641 96.8604 181.092C96.7849 181.22 96.7099 181.348 96.6349 181.476C96.4466 181.787 96.1142 181.95 95.7742 181.946M87.2988 181.174C86.2542 181.578 85.2686 182.128 84.3699 182.809C83.9537 183.122 83.3574 183.088 83.0107 182.691C82.9148 182.578 82.8196 182.465 82.7237 182.352C82.3779 181.957 82.4816 181.284 82.9913 180.899C84.2132 179.975 85.57 179.252 87.0117 178.759C87.6115 178.553 88.2082 178.853 88.3267 179.369C88.3621 179.515 88.3977 179.659 88.4326 179.805C88.5141 180.16 88.3917 180.516 88.1483 180.759M81.6227 186.349C81.1634 187.391 80.8455 188.493 80.6803 189.625C80.6022 190.147 80.1577 190.556 79.6382 190.525C79.4925 190.514 79.3469 190.505 79.2012 190.494C78.6834 190.464 78.2922 189.913 78.3869 189.273C78.6118 187.734 79.0727 186.241 79.7514 184.849C80.0333 184.268 80.662 184.048 81.1024 184.328C81.2278 184.405 81.3531 184.482 81.4776 184.559C81.7812 184.752 81.9408 185.093 81.9365 185.441M81.1827 194.117C81.5776 195.186 82.1142 196.196 82.7789 197.115C83.085 197.541 83.0529 198.152 82.6646 198.506C82.5541 198.605 82.4435 198.702 82.3333 198.801C81.9472 199.154 81.29 199.048 80.9146 198.527C80.0107 197.276 79.3049 195.887 78.8235 194.41C78.6222 193.796 78.9146 193.185 79.4192 193.064C79.5612 193.028 79.7031 192.992 79.845 192.956C80.1925 192.873 80.5402 192.998 80.7774 193.247M86.2371 199.928C87.2549 200.398 88.3317 200.723 89.4373 200.892C89.9481 200.972 90.3463 201.427 90.317 201.959C90.3064 202.108 90.2965 202.257 90.2859 202.406C90.2575 202.936 89.7199 203.337 89.094 203.24C87.5905 203.01 86.1324 202.538 84.7724 201.843C84.2053 201.554 83.9901 200.911 84.2638 200.46C84.3388 200.332 84.4141 200.204 84.4898 200.076C84.6777 199.765 85.0101 199.602 85.3498 199.606M93.8255 200.378C94.8698 199.973 95.8556 199.424 96.7544 198.744C97.1706 198.43 97.7666 198.463 98.1129 198.861C98.2088 198.974 98.3046 199.087 98.4005 199.2C98.7461 199.595 98.6425 200.268 98.1332 200.652C96.911 201.578 95.5543 202.3 94.1127 202.793C93.5125 202.999 92.9156 202.7 92.7975 202.183C92.7622 202.038 92.7263 201.893 92.691 201.747C92.6099 201.392 92.7325 201.036 92.9757 200.793M99.502 195.203C99.9606 194.161 100.278 193.059 100.444 191.927C100.522 191.405 100.966 190.996 101.486 191.026C101.632 191.037 101.777 191.048 101.924 191.058C102.441 191.087 102.832 191.638 102.738 192.279C102.513 193.818 102.052 195.311 101.373 196.703C101.091 197.283 100.463 197.503 100.022 197.223C99.8967 197.146 99.7713 197.07 99.6457 196.992C99.3428 196.8 99.184 196.46 99.1882 196.111" stroke="#484559" stroke-opacity="0.483401" stroke-width="2"/>
    <path d="M99.5637 222.04C85.2432 226.378 69.468 219.882 62.3201 205.811C54.2088 189.844 60.2778 170.168 75.8754 161.865C91.4725 153.561 110.693 159.773 118.804 175.74C125.952 189.811 122.087 206.764 110.394 216.274" fill="#323042" fill-opacity="0.0444564"/>
    <path d="M113.184 171.934C104.615 160.899 89.3302 157.246 76.6599 163.991C62.2814 171.646 56.6783 189.812 64.1556 204.531C71.6329 219.251 89.3781 224.987 103.757 217.332C116.427 210.587 122.283 195.679 118.379 182.161" fill="#484559" fill-opacity="0.0444564"/>
    <path d="M96.4935 211.376C87.0576 214.235 76.6629 209.955 71.953 200.683C66.6085 190.162 70.6071 177.197 80.8847 171.726C91.1619 166.254 103.827 170.348 109.171 180.869C113.881 190.141 111.335 201.31 103.63 207.577" fill="#323042" fill-opacity="0.0444564"/>
    <path d="M95.586 208.225C87.5932 210.647 78.7887 207.021 74.7992 199.168C70.2718 190.255 73.659 179.274 82.3647 174.639C91.0705 170.004 101.798 173.472 106.325 182.384C110.314 190.238 108.158 199.699 101.631 205.007" fill="#787780" fill-opacity="0.0444564"/>
    <path d="M94.5299 204.557C88.2173 206.469 81.2637 203.606 78.1129 197.404C74.5373 190.365 77.213 181.692 84.088 178.032C90.9631 174.372 99.4353 177.11 103.011 184.149C106.162 190.351 104.458 197.823 99.3041 202.015" fill="#9897A6" fill-opacity="0.0444564"/>
    <path d="M92.692 198.173C89.3032 199.201 85.5702 197.664 83.8787 194.334C81.9593 190.555 83.3956 185.899 87.0864 183.934C90.7772 181.969 95.3258 183.44 97.2451 187.218C98.9366 190.548 98.022 194.559 95.2546 196.809" fill="#A5A3B3" fill-opacity="0.0444564"/>
    <path d="M91.788 195.034C89.8379 195.624 87.6896 194.739 86.7162 192.823C85.6116 190.649 86.438 187.97 88.5621 186.839C90.6862 185.708 93.3038 186.554 94.4084 188.728C95.3818 190.644 94.8552 192.953 93.263 194.248" fill="#CBC8DC" fill-opacity="0.0444564"/>
    <path d="M91.3883 193.646C90.0739 194.044 88.6258 193.448 87.9696 192.156C87.2251 190.69 87.7824 188.885 89.2142 188.122C90.6459 187.36 92.41 187.93 93.1545 189.396C93.8107 190.687 93.4561 192.244 92.3828 193.117" fill="#9C9AA9" fill-opacity="0.0444564"/>
    <path d="M91.1722 192.895C90.2015 193.189 89.1318 192.749 88.6475 191.795C88.0977 190.713 88.5098 189.379 89.5667 188.817C90.6236 188.254 91.9267 188.674 92.4766 189.757C92.9609 190.71 92.6989 191.86 91.906 192.504" fill="#4B4B52" fill-opacity="0.0444564"/>
    <path d="M99.9414 187.435C99.5467 186.365 99.0099 185.356 98.3452 184.437C98.0386 184.01 98.0719 183.4 98.46 183.045C98.57 182.948 98.6799 182.85 98.7904 182.751C99.1766 182.397 99.8339 182.504 100.209 183.025C101.113 184.276 101.819 185.665 102.3 187.141C102.502 187.755 102.209 188.367 101.704 188.488C101.563 188.523 101.421 188.56 101.28 188.596C100.932 188.679 100.584 188.554 100.347 188.304" fill="#4B4B52" fill-opacity="0.0444564"/>
    <path d="M94.8868 181.624C93.869 181.154 92.7925 180.829 91.6873 180.66C91.1765 180.58 90.7777 180.124 90.8067 179.592C90.8173 179.443 90.8277 179.295 90.838 179.145C90.8669 178.615 91.4045 178.215 92.0302 178.312C93.5336 178.542 94.992 179.013 96.352 179.709C96.9184 179.997 97.1338 180.641 96.8603 181.092C96.7849 181.22 96.7099 181.348 96.6349 181.476C96.4465 181.787 96.1141 181.95 95.7741 181.946" fill="#4B4B52" fill-opacity="0.0444564"/>
    <path d="M87.2987 181.174C86.2541 181.578 85.2686 182.128 84.3699 182.809C83.9536 183.122 83.3574 183.088 83.0106 182.691C82.9148 182.578 82.8196 182.465 82.7237 182.352C82.3779 181.957 82.4815 181.284 82.9912 180.899C84.2132 179.974 85.5699 179.252 87.0117 178.759C87.6115 178.553 88.2081 178.853 88.3267 179.369C88.3621 179.514 88.3977 179.659 88.4325 179.805C88.5141 180.16 88.3917 180.516 88.1483 180.759" fill="#4B4B52" fill-opacity="0.0444564"/>
    <path d="M81.6227 186.349C81.1633 187.391 80.8455 188.493 80.6802 189.624C80.6022 190.147 80.1576 190.555 79.6382 190.525C79.4925 190.514 79.3468 190.504 79.2011 190.494C78.6833 190.464 78.2922 189.913 78.3869 189.273C78.6118 187.734 79.0726 186.241 79.7514 184.849C80.0332 184.268 80.6619 184.048 81.1024 184.328C81.2277 184.405 81.3531 184.482 81.4775 184.559C81.7812 184.752 81.9407 185.092 81.9365 185.44" fill="#4B4B52" fill-opacity="0.0444564"/>
    <path d="M81.1826 194.117C81.5776 195.186 82.1142 196.195 82.7789 197.115C83.085 197.541 83.0529 198.152 82.6646 198.506C82.5541 198.604 82.4435 198.702 82.3333 198.801C81.9472 199.154 81.29 199.048 80.9145 198.527C80.0107 197.276 79.3049 195.886 78.8235 194.41C78.6222 193.796 78.9146 193.185 79.4192 193.064C79.5611 193.028 79.7031 192.992 79.845 192.956C80.1925 192.872 80.5402 192.998 80.7774 193.247" fill="#4B4B52" fill-opacity="0.0444564"/>
    <path d="M86.237 199.927C87.2548 200.397 88.3316 200.723 89.4372 200.892C89.9481 200.972 90.3462 201.427 90.3169 201.958C90.3063 202.108 90.2964 202.257 90.2858 202.406C90.2574 202.936 89.7198 203.337 89.0939 203.24C87.5904 203.01 86.1323 202.538 84.7723 201.843C84.2052 201.554 83.99 200.91 84.2637 200.46C84.3387 200.331 84.414 200.203 84.4897 200.075C84.6776 199.765 85.01 199.602 85.3497 199.606" fill="#4B4B52" fill-opacity="0.0444564"/>
    <path d="M93.8254 200.378C94.8697 199.973 95.8555 199.424 96.7542 198.743C97.1704 198.43 97.7665 198.463 98.1128 198.861C98.2086 198.974 98.3045 199.087 98.4004 199.2C98.7459 199.595 98.6423 200.268 98.1331 200.652C96.9109 201.578 95.5542 202.3 94.1126 202.792C93.5123 202.999 92.9155 202.699 92.7974 202.183C92.762 202.038 92.7262 201.892 92.6908 201.747C92.6097 201.392 92.7324 201.036 92.9755 200.793" fill="#4B4B52" fill-opacity="0.0444564"/>
    <path d="M99.5018 195.202C99.9605 194.161 100.278 193.058 100.444 191.927C100.522 191.405 100.966 190.996 101.486 191.026C101.632 191.037 101.777 191.048 101.923 191.058C102.441 191.087 102.832 191.638 102.737 192.279C102.512 193.818 102.052 195.311 101.373 196.703C101.091 197.283 100.462 197.503 100.021 197.223C99.8965 197.146 99.7712 197.07 99.6456 196.992C99.3426 196.8 99.1838 196.459 99.188 196.111" fill="#4B4B52" fill-opacity="0.0444564"/>
    <path d="M349.366 222.04C335.045 226.378 319.27 219.882 312.122 205.811C304.011 189.844 310.08 170.168 325.678 161.865C341.275 153.561 360.495 159.773 368.607 175.74C375.754 189.811 371.89 206.764 360.197 216.274M362.985 171.937C354.42 160.898 339.132 157.247 326.463 163.992C312.085 171.646 306.478 189.812 313.955 204.531C321.432 219.25 339.182 224.987 353.56 217.333C366.229 210.588 372.088 195.679 368.179 182.161M346.296 211.376C336.86 214.235 326.465 209.955 321.755 200.683C316.411 190.162 320.409 177.197 330.687 171.725C340.964 166.254 353.629 170.348 358.973 180.869C363.683 190.141 361.137 201.31 353.432 207.577M345.388 208.225C337.395 210.647 328.591 207.021 324.601 199.168C320.074 190.255 323.461 179.274 332.167 174.639C340.873 170.004 351.6 173.472 356.127 182.384C360.117 190.238 357.96 199.699 351.434 205.007M344.332 204.557C338.019 206.469 331.066 203.606 327.915 197.404C324.34 190.365 327.015 181.691 333.89 178.031C340.765 174.371 349.237 177.11 352.813 184.149C355.964 190.351 354.26 197.823 349.106 202.015M342.494 198.173C339.106 199.201 335.373 197.664 333.681 194.334C331.762 190.556 333.198 185.899 336.889 183.934C340.58 181.969 345.128 183.44 347.047 187.218C348.739 190.548 347.824 194.559 345.057 196.809M341.59 195.034C339.64 195.624 337.492 194.739 336.518 192.823C335.414 190.649 336.24 187.97 338.364 186.839C340.488 185.708 343.106 186.554 344.211 188.728C345.184 190.644 344.657 192.953 343.065 194.248M341.19 193.646C339.876 194.044 338.428 193.448 337.772 192.156C337.027 190.69 337.585 188.885 339.016 188.122C340.448 187.36 342.212 187.93 342.957 189.396C343.613 190.687 343.258 192.244 342.185 193.116M340.974 192.894C340.004 193.189 338.934 192.748 338.45 191.795C337.9 190.713 338.312 189.379 339.369 188.816C340.426 188.254 341.729 188.674 342.279 189.757C342.763 190.71 342.501 191.859 341.708 192.504M349.744 187.435C349.349 186.366 348.812 185.357 348.148 184.437C347.841 184.011 347.874 183.401 348.262 183.046C348.372 182.948 348.482 182.85 348.593 182.752C348.979 182.398 349.636 182.504 350.012 183.025C350.916 184.276 351.622 185.666 352.103 187.141C352.304 187.755 352.011 188.367 351.507 188.488C351.365 188.524 351.223 188.56 351.082 188.596C350.734 188.679 350.387 188.554 350.15 188.305M344.689 181.624C343.671 181.154 342.595 180.829 341.49 180.66C340.979 180.58 340.58 180.125 340.609 179.593C340.62 179.443 340.63 179.295 340.64 179.145C340.669 178.615 341.207 178.215 341.832 178.312C343.336 178.542 344.794 179.013 346.154 179.709C346.721 179.997 346.936 180.641 346.663 181.092C346.587 181.22 346.512 181.348 346.437 181.476C346.249 181.787 345.916 181.95 345.576 181.946M337.101 181.174C336.056 181.578 335.071 182.128 334.172 182.809C333.756 183.122 333.16 183.088 332.813 182.691C332.717 182.578 332.622 182.465 332.526 182.352C332.18 181.957 332.284 181.284 332.794 180.899C334.015 179.975 335.372 179.252 336.814 178.759C337.414 178.553 338.01 178.853 338.129 179.369C338.164 179.515 338.2 179.659 338.235 179.805C338.316 180.16 338.194 180.516 337.951 180.759M331.425 186.349C330.966 187.391 330.648 188.493 330.483 189.625C330.404 190.147 329.96 190.556 329.44 190.525C329.295 190.514 329.149 190.505 329.003 190.494C328.486 190.464 328.094 189.913 328.189 189.273C328.414 187.734 328.875 186.241 329.554 184.849C329.836 184.268 330.464 184.048 330.905 184.328C331.03 184.405 331.155 184.482 331.28 184.559C331.583 184.752 331.743 185.093 331.739 185.441M330.985 194.117C331.38 195.186 331.916 196.196 332.581 197.115C332.887 197.541 332.855 198.152 332.467 198.506C332.356 198.605 332.246 198.702 332.136 198.801C331.749 199.154 331.092 199.048 330.717 198.527C329.813 197.276 329.107 195.887 328.626 194.41C328.424 193.796 328.717 193.185 329.221 193.064C329.363 193.028 329.505 192.992 329.647 192.956C329.995 192.873 330.342 192.998 330.58 193.247M336.039 199.928C337.057 200.398 338.134 200.723 339.24 200.892C339.75 200.972 340.149 201.427 340.119 201.959C340.109 202.108 340.099 202.257 340.088 202.406C340.06 202.936 339.522 203.337 338.896 203.24C337.393 203.01 335.935 202.538 334.575 201.843C334.007 201.554 333.792 200.911 334.066 200.46C334.141 200.332 334.216 200.204 334.292 200.076C334.48 199.765 334.812 199.602 335.152 199.606M343.628 200.378C344.672 199.973 345.658 199.424 346.557 198.744C346.973 198.43 347.569 198.463 347.915 198.861C348.011 198.974 348.107 199.087 348.203 199.2C348.548 199.595 348.445 200.268 347.935 200.652C346.713 201.578 345.357 202.3 343.915 202.793C343.315 202.999 342.718 202.7 342.6 202.183C342.564 202.038 342.529 201.893 342.493 201.747C342.412 201.392 342.535 201.036 342.778 200.793M349.304 195.203C349.763 194.161 350.081 193.059 350.246 191.927C350.324 191.405 350.769 190.996 351.288 191.026C351.434 191.037 351.58 191.048 351.726 191.058C352.243 191.087 352.634 191.638 352.54 192.279C352.315 193.818 351.854 195.311 351.175 196.703C350.893 197.283 350.265 197.503 349.824 197.223C349.699 197.146 349.574 197.07 349.448 196.992C349.145 196.8 348.986 196.46 348.99 196.111" stroke="#484559" stroke-opacity="0.483401" stroke-width="2"/>
    <path d="M349.366 222.04C335.045 226.378 319.27 219.882 312.122 205.811C304.011 189.844 310.08 170.168 325.678 161.865C341.275 153.561 360.495 159.773 368.607 175.74C375.754 189.811 371.89 206.764 360.197 216.274" fill="#323042" fill-opacity="0.0444564"/>
    <path d="M362.986 171.934C354.417 160.899 339.132 157.246 326.462 163.991C312.084 171.646 306.481 189.812 313.958 204.531C321.435 219.251 339.18 224.987 353.559 217.332C366.229 210.587 372.085 195.679 368.182 182.161" fill="#484559" fill-opacity="0.0444564"/>
    <path d="M346.296 211.376C336.86 214.235 326.465 209.955 321.755 200.683C316.411 190.162 320.409 177.197 330.687 171.726C340.964 166.254 353.629 170.348 358.973 180.869C363.683 190.141 361.137 201.31 353.432 207.577" fill="#323042" fill-opacity="0.0444564"/>
    <path d="M345.388 208.225C337.395 210.647 328.591 207.021 324.601 199.168C320.074 190.255 323.461 179.274 332.167 174.639C340.873 170.004 351.6 173.472 356.127 182.384C360.117 190.238 357.96 199.699 351.434 205.007" fill="#787780" fill-opacity="0.0444564"/>
    <path d="M344.332 204.557C338.02 206.469 331.066 203.606 327.915 197.404C324.34 190.365 327.015 181.692 333.89 178.032C340.765 174.372 349.238 177.11 352.813 184.149C355.964 190.351 354.26 197.823 349.106 202.015" fill="#9897A6" fill-opacity="0.0444564"/>
    <path d="M342.494 198.173C339.105 199.201 335.372 197.664 333.681 194.334C331.762 190.555 333.198 185.899 336.889 183.934C340.579 181.969 345.128 183.44 347.047 187.218C348.739 190.548 347.824 194.559 345.057 196.809" fill="#A5A3B3" fill-opacity="0.0444564"/>
    <path d="M341.59 195.034C339.64 195.624 337.492 194.739 336.518 192.823C335.414 190.649 336.24 187.97 338.364 186.839C340.488 185.708 343.106 186.554 344.211 188.728C345.184 190.644 344.657 192.953 343.065 194.248" fill="#CBC8DC" fill-opacity="0.0444564"/>
    <path d="M341.191 193.646C339.876 194.044 338.428 193.448 337.772 192.156C337.027 190.69 337.585 188.885 339.016 188.122C340.448 187.36 342.212 187.93 342.957 189.396C343.613 190.687 343.258 192.244 342.185 193.117" fill="#9C9AA9" fill-opacity="0.0444564"/>
    <path d="M340.974 192.895C340.004 193.189 338.934 192.749 338.45 191.795C337.9 190.713 338.312 189.379 339.369 188.817C340.426 188.254 341.729 188.674 342.279 189.757C342.763 190.71 342.501 191.86 341.708 192.504" fill="#4B4B52" fill-opacity="0.0444564"/>
    <path d="M349.744 187.435C349.349 186.365 348.812 185.356 348.147 184.437C347.841 184.01 347.874 183.4 348.262 183.045C348.372 182.948 348.482 182.85 348.593 182.751C348.979 182.397 349.636 182.504 350.012 183.025C350.916 184.276 351.621 185.665 352.103 187.141C352.304 187.755 352.011 188.367 351.507 188.488C351.365 188.523 351.223 188.56 351.082 188.596C350.734 188.679 350.387 188.554 350.149 188.304" fill="#4B4B52" fill-opacity="0.0444564"/>
    <path d="M344.689 181.624C343.671 181.154 342.595 180.829 341.49 180.66C340.979 180.58 340.58 180.124 340.609 179.592C340.62 179.443 340.63 179.295 340.64 179.145C340.669 178.615 341.207 178.215 341.832 178.312C343.336 178.542 344.794 179.013 346.154 179.709C346.721 179.997 346.936 180.641 346.663 181.092C346.587 181.22 346.512 181.348 346.437 181.476C346.249 181.787 345.916 181.95 345.576 181.946" fill="#4B4B52" fill-opacity="0.0444564"/>
    <path d="M337.101 181.174C336.056 181.578 335.071 182.128 334.172 182.809C333.756 183.122 333.16 183.088 332.813 182.691C332.717 182.578 332.622 182.465 332.526 182.352C332.18 181.957 332.284 181.284 332.793 180.899C334.015 179.974 335.372 179.252 336.814 178.759C337.414 178.553 338.01 178.853 338.129 179.369C338.164 179.514 338.2 179.659 338.235 179.805C338.316 180.16 338.194 180.516 337.951 180.759" fill="#4B4B52" fill-opacity="0.0444564"/>
    <path d="M331.425 186.349C330.966 187.391 330.648 188.493 330.482 189.624C330.404 190.147 329.96 190.555 329.44 190.525C329.295 190.514 329.149 190.504 329.003 190.494C328.486 190.464 328.094 189.913 328.189 189.273C328.414 187.734 328.875 186.241 329.554 184.849C329.835 184.268 330.464 184.048 330.905 184.328C331.03 184.405 331.155 184.482 331.28 184.559C331.583 184.752 331.743 185.092 331.739 185.44" fill="#4B4B52" fill-opacity="0.0444564"/>
    <path d="M330.985 194.117C331.38 195.186 331.916 196.195 332.581 197.115C332.887 197.541 332.855 198.152 332.467 198.506C332.356 198.604 332.246 198.702 332.136 198.801C331.749 199.154 331.092 199.048 330.717 198.527C329.813 197.276 329.107 195.886 328.626 194.41C328.424 193.796 328.717 193.185 329.221 193.064C329.363 193.028 329.505 192.992 329.647 192.956C329.995 192.872 330.342 192.998 330.58 193.247" fill="#4B4B52" fill-opacity="0.0444564"/>
    <path d="M336.039 199.927C337.057 200.397 338.134 200.723 339.239 200.892C339.75 200.972 340.148 201.427 340.119 201.958C340.109 202.108 340.099 202.257 340.088 202.406C340.06 202.936 339.522 203.337 338.896 203.24C337.393 203.01 335.935 202.538 334.575 201.843C334.007 201.554 333.792 200.91 334.066 200.46C334.141 200.331 334.216 200.203 334.292 200.075C334.48 199.765 334.812 199.602 335.152 199.606" fill="#4B4B52" fill-opacity="0.0444564"/>
    <path d="M343.628 200.378C344.672 199.973 345.658 199.424 346.556 198.743C346.973 198.43 347.569 198.463 347.915 198.861C348.011 198.974 348.107 199.087 348.203 199.2C348.548 199.595 348.445 200.268 347.935 200.652C346.713 201.578 345.356 202.3 343.915 202.792C343.315 202.999 342.718 202.699 342.6 202.183C342.564 202.038 342.528 201.892 342.493 201.747C342.412 201.392 342.535 201.036 342.778 200.793" fill="#4B4B52" fill-opacity="0.0444564"/>
    <path d="M349.304 195.202C349.763 194.161 350.081 193.058 350.246 191.927C350.324 191.405 350.769 190.996 351.289 191.026C351.434 191.037 351.58 191.048 351.726 191.058C352.243 191.087 352.634 191.638 352.54 192.279C352.315 193.818 351.854 195.311 351.175 196.703C350.894 197.283 350.265 197.503 349.824 197.223C349.699 197.146 349.574 197.07 349.448 196.992C349.145 196.8 348.986 196.459 348.99 196.111" fill="#4B4B52" fill-opacity="0.0444564"/>
    <path d="M32.8957 163.527C32.8957 163.527 34.9294 163.527 38.2307 163.527" stroke="#ECEBEB" stroke-width="2.1" stroke-linecap="round"/>
    </g>
    <defs>
    <filter id="filter0_d_26_85" x="0.5" y="0.5" width="423" height="231.878" filterUnits="userSpaceOnUse" color-interpolation-filters="sRGB">
    <feFlood flood-opacity="0" result="BackgroundImageFix"/>
    <feColorMatrix in="SourceAlpha" type="matrix" values="0 0 0 0 0 0 0 0 0 0 0 0 0 0 0 0 0 0 127 0" result="hardAlpha"/>
    <feOffset dy="4"/>
    <feGaussianBlur stdDeviation="2"/>
    <feComposite in2="hardAlpha" operator="out"/>
    <feColorMatrix type="matrix" values="0 0 0 0 0 0 0 0 0 0 0 0 0 0 0 0 0 0 0.25 0"/>
    <feBlend mode="normal" in2="BackgroundImageFix" result="effect1_dropShadow_26_85"/>
    <feBlend mode="normal" in="SourceGraphic" in2="effect1_dropShadow_26_85" result="shape"/>
    </filter>
    </defs>
    </svg>
    