<svg width="1440" height="75" viewBox="0 0 1440 75" fill="none" xmlns="http://www.w3.org/2000/svg">
    <path d="M0 27.861L14.1 35.6098C28.2 43.2426 56 58.9144 85 61.9037C112.9 65.009 141 55.722 169 54.1839C197.6 52.5296 226 58.9144 254 54.1839C282.4 49.6274 319.5 63.3548 347.5 60.3655C375.6 57.2602 385.5 41.7915 414.5 47.9732C424 47 404 47.8861 432 47.9732C460.5 47.8861 466.5 52.6924 494.5 49.5C522.7 46.3076 556 66.6342 585 71.1907C612.9 75.9212 715 40.1373 743 47.9732C771.6 55.8091 823.5 54.0564 851.5 49.5C879.8 44.7694 904 58.9144 932 47.9732C960 37.148 988 27.861 1016 30.9663C1044.7 33.9556 1073 49.6274 1101 60.3655C1129.4 71.1036 1118 51.1946 1146 44.8969C1174.1 38.7152 1242 46.435 1271 44.8969C1298.8 43.2426 1327 58.9144 1355 66.5472C1383.5 74.296 1412 74.296 1426 74.296H1440V0H1425.9C1411.8 0 1384 0 1355 0C1327.1 0 1299 0 1271 0C1242.4 0 1214 0 1186 0C1157.6 0 1129 0 1101 0C1072.9 0 1045 0 1016 0C988.2 0 960 0 932 0C903.5 0 875 0 847 0C818.8 0 791 0 762 0C734.1 0 706 0 678 0C649.4 0 621 0 593 0C564.7 0 536 0 508 0C480 0 452 0 424 0C395.3 0 367 0 339 0C310.6 0 282 0 254 0C225.9 0 198 0 169 0C141.2 0 113 0 85 0C56.5 0 28 0 14 0H0V27.861Z" fill="white"/>
    </svg>
    